<svg width="24" height="24" viewBox="0 0 24 24" fill="none" xmlns="http://www.w3.org/2000/svg">
<path fill-rule="evenodd" clip-rule="evenodd" d="M4.47663 15.2102C5.79094 13.378 8.11863 12 12 12C15.8813 12 18.209 13.378 19.5233 15.2102C20.7935 16.9809 20.9958 19.0105 20.9999 20.1336C21.004 21.2629 20.0572 22 19.0865 22H4.9134C3.94272 22 2.99595 21.2629 3.00001 20.1336C3.00405 19.0105 3.20637 16.9809 4.47663 15.2102Z" fill="white"/>
<path fill-rule="evenodd" clip-rule="evenodd" d="M12 10C14.2092 10 16 8.20914 16 6C16 3.79086 14.2092 2 12 2C9.79091 2 8.00005 3.79086 8.00005 6C8.00005 8.20914 9.79091 10 12 10Z" fill="white"/>
</svg>
