<svg width="16" height="16" viewBox="0 0 16 16" fill="none" xmlns="http://www.w3.org/2000/svg">
<path d="M12.2421 12.2426C12.5024 11.9822 12.5024 11.5601 12.2421 11.2997L8.94269 8.00037L12.243 4.70009C12.5033 4.43974 12.5033 4.01763 12.243 3.75728C11.9826 3.49693 11.5605 3.49693 11.3002 3.75728L7.99988 7.05756L4.69959 3.75727C4.43925 3.49692 4.01714 3.49692 3.75679 3.75727C3.49644 4.01762 3.49644 4.43973 3.75679 4.70008L7.05707 8.00037L3.75769 11.2997C3.49734 11.5601 3.49734 11.9822 3.75769 12.2426C4.01804 12.5029 4.44015 12.5029 4.7005 12.2426L7.99988 8.94318L11.2993 12.2426C11.5596 12.5029 11.9817 12.5029 12.2421 12.2426Z" fill="#9CA3AF"/>
</svg>
