<svg width="25" height="24" viewBox="0 0 25 24" fill="none" xmlns="http://www.w3.org/2000/svg">
<path fill-rule="evenodd" clip-rule="evenodd" d="M3.71627 12C4.29391 12.7966 5.4778 14.2978 7.03673 15.6047C8.65313 16.9598 10.5459 18 12.5 18C14.4542 18 16.347 16.9598 17.9634 15.6047C19.5223 14.2978 20.7062 12.7966 21.2838 12C20.7062 11.2033 19.5223 9.70224 17.9634 8.39529C16.347 7.04015 14.4542 6 12.5 6C10.5459 6 8.65313 7.04015 7.03673 8.39529C5.4778 9.70224 4.29391 11.2033 3.71627 12ZM5.75181 6.86265C7.51354 5.38568 9.85633 4 12.5 4C15.1438 4 17.4865 5.38568 19.2483 6.86264C21.0271 8.35393 22.3432 10.0471 22.9514 10.893C23.4297 11.5584 23.4297 12.4416 22.9514 13.107C22.3432 13.9529 21.0271 15.6461 19.2483 17.1374C17.4865 18.6143 15.1438 20 12.5 20C9.85633 20 7.51354 18.6143 5.75181 17.1374C3.973 15.6461 2.65685 13.9529 2.04872 13.107C1.57035 12.4416 1.57035 11.5584 2.04872 10.893C2.65685 10.0471 3.973 8.35393 5.75181 6.86265Z" fill="#6366F1"/>
<path fill-rule="evenodd" clip-rule="evenodd" d="M12.5 14C13.6046 14 14.5 13.1046 14.5 12C14.5 10.8954 13.6046 10 12.5 10C11.3955 10 10.5 10.8954 10.5 12C10.5 13.1046 11.3955 14 12.5 14ZM12.5 16C14.7092 16 16.5 14.2091 16.5 12C16.5 9.79086 14.7092 8 12.5 8C10.2909 8 8.50004 9.79086 8.50004 12C8.50004 14.2091 10.2909 16 12.5 16Z" fill="#6366F1"/>
</svg>
