<svg width="24" height="24" viewBox="0 0 24 24" fill="none" xmlns="http://www.w3.org/2000/svg">
<path fill-rule="evenodd" clip-rule="evenodd" d="M4.47663 15.2102C5.79094 13.378 8.11863 12 12 12C15.8813 12 18.209 13.378 19.5233 15.2102C20.7935 16.9809 20.9958 19.0105 20.9999 20.1336C21.004 21.2629 20.0572 22 19.0865 22H4.9134C3.94272 22 2.99595 21.2629 3.00001 20.1336C3.00405 19.0105 3.20637 16.9809 4.47663 15.2102ZM5.00178 20H18.9981C18.9775 19.0479 18.7727 17.595 17.8982 16.376C17.0234 15.1565 15.3549 14 12 14C8.64504 14 6.97648 15.1565 6.10173 16.376C5.22725 17.595 5.02243 19.0479 5.00178 20Z" fill="#9CA3AF"/>
<path fill-rule="evenodd" clip-rule="evenodd" d="M12 8C13.1046 8 14 7.10457 14 6C14 4.89543 13.1046 4 12 4C10.8955 4 10 4.89543 10 6C10 7.10457 10.8955 8 12 8ZM12 10C14.2092 10 16 8.20914 16 6C16 3.79086 14.2092 2 12 2C9.79091 2 8.00005 3.79086 8.00005 6C8.00005 8.20914 9.79091 10 12 10Z" fill="#9CA3AF"/>
</svg>
