<svg width="100" height="150" viewBox="0 0 100 150" fill="none" xmlns="http://www.w3.org/2000/svg">
<rect width="100" height="150" fill="#C7D2FE"/>
<path d="M29.47 82.36C28.282 82.36 27.262 82.156 26.41 81.748C25.558 81.328 24.856 80.782 24.304 80.11C23.752 79.426 23.344 78.688 23.08 77.896C22.816 77.104 22.684 76.336 22.684 75.592V75.196C22.684 74.368 22.816 73.558 23.08 72.766C23.356 71.962 23.77 71.236 24.322 70.588C24.886 69.94 25.588 69.424 26.428 69.04C27.268 68.656 28.252 68.464 29.38 68.464C30.58 68.464 31.642 68.692 32.566 69.148C33.502 69.592 34.252 70.222 34.816 71.038C35.38 71.842 35.71 72.778 35.806 73.846H32.458C32.374 73.39 32.194 72.994 31.918 72.658C31.642 72.322 31.288 72.064 30.856 71.884C30.424 71.692 29.932 71.596 29.38 71.596C28.864 71.596 28.396 71.686 27.976 71.866C27.568 72.046 27.22 72.304 26.932 72.64C26.656 72.964 26.44 73.36 26.284 73.828C26.14 74.296 26.068 74.824 26.068 75.412C26.068 76 26.14 76.528 26.284 76.996C26.44 77.464 26.662 77.866 26.95 78.202C27.25 78.538 27.61 78.796 28.03 78.976C28.45 79.144 28.93 79.228 29.47 79.228C30.31 79.228 31.018 79.024 31.594 78.616C32.182 78.208 32.536 77.662 32.656 76.978H36.004C35.896 77.962 35.566 78.862 35.014 79.678C34.462 80.494 33.718 81.148 32.782 81.64C31.846 82.12 30.742 82.36 29.47 82.36ZM42.5696 82.36C41.6936 82.36 40.9136 82.228 40.2296 81.964C39.5456 81.7 38.9636 81.334 38.4836 80.866C38.0156 80.398 37.6556 79.858 37.4036 79.246C37.1636 78.634 37.0436 77.98 37.0436 77.284V76.852C37.0436 76.132 37.1696 75.46 37.4216 74.836C37.6856 74.212 38.0576 73.666 38.5376 73.198C39.0176 72.73 39.5996 72.364 40.2836 72.1C40.9676 71.836 41.7296 71.704 42.5696 71.704C43.4216 71.704 44.1836 71.836 44.8556 72.1C45.5396 72.364 46.1216 72.73 46.6016 73.198C47.0816 73.666 47.4476 74.212 47.6996 74.836C47.9636 75.46 48.0956 76.132 48.0956 76.852V77.284C48.0956 77.98 47.9696 78.634 47.7176 79.246C47.4776 79.858 47.1176 80.398 46.6376 80.866C46.1696 81.334 45.5936 81.7 44.9096 81.964C44.2256 82.228 43.4456 82.36 42.5696 82.36ZM42.5696 79.624C43.0736 79.624 43.4876 79.516 43.8116 79.3C44.1476 79.084 44.3996 78.784 44.5676 78.4C44.7356 78.004 44.8196 77.56 44.8196 77.068C44.8196 76.552 44.7296 76.102 44.5496 75.718C44.3816 75.322 44.1296 75.01 43.7936 74.782C43.4576 74.554 43.0496 74.44 42.5696 74.44C42.0896 74.44 41.6816 74.554 41.3456 74.782C41.0096 75.01 40.7516 75.322 40.5716 75.718C40.4036 76.102 40.3196 76.552 40.3196 77.068C40.3196 77.56 40.4036 78.004 40.5716 78.4C40.7396 78.784 40.9916 79.084 41.3276 79.3C41.6636 79.516 42.0776 79.624 42.5696 79.624ZM51.5151 82L48.6711 72.064H52.0191L54.6651 82H51.5151ZM52.5591 82V79.264H55.7451V82H52.5591ZM53.7111 82L55.9611 72.064H59.0931L56.6451 82H53.7111ZM65.0277 82.36C64.1877 82.36 63.4437 82.216 62.7957 81.928C62.1477 81.64 61.6017 81.25 61.1577 80.758C60.7137 80.266 60.3717 79.714 60.1317 79.102C59.9037 78.49 59.7897 77.86 59.7897 77.212V76.852C59.7897 76.18 59.9037 75.538 60.1317 74.926C60.3717 74.302 60.7077 73.75 61.1397 73.27C61.5837 72.79 62.1237 72.412 62.7597 72.136C63.3957 71.848 64.1157 71.704 64.9197 71.704C65.9877 71.704 66.8937 71.944 67.6377 72.424C68.3817 72.904 68.9517 73.54 69.3477 74.332C69.7437 75.112 69.9417 75.964 69.9417 76.888V77.932H61.1577V76.168H68.0517L66.9177 76.96C66.9177 76.396 66.8397 75.922 66.6837 75.538C66.5397 75.142 66.3177 74.842 66.0177 74.638C65.7297 74.434 65.3637 74.332 64.9197 74.332C64.4877 74.332 64.1097 74.434 63.7857 74.638C63.4737 74.83 63.2337 75.13 63.0657 75.538C62.8977 75.934 62.8137 76.438 62.8137 77.05C62.8137 77.602 62.8917 78.082 63.0477 78.49C63.2037 78.886 63.4437 79.192 63.7677 79.408C64.0917 79.624 64.5117 79.732 65.0277 79.732C65.4837 79.732 65.8557 79.654 66.1437 79.498C66.4437 79.342 66.6537 79.132 66.7737 78.868H69.7617C69.6177 79.54 69.3297 80.14 68.8977 80.668C68.4777 81.196 67.9377 81.61 67.2777 81.91C66.6297 82.21 65.8797 82.36 65.0277 82.36ZM71.6685 82V72.064H74.2605V76.384H74.2245C74.2245 74.992 74.5125 73.9 75.0885 73.108C75.6765 72.316 76.5165 71.92 77.6085 71.92H78.0045V74.728H77.2485C76.5165 74.728 75.9465 74.926 75.5385 75.322C75.1425 75.718 74.9445 76.288 74.9445 77.032V82H71.6685Z" fill="#4F46E5"/>
</svg>
