<svg width="574" height="120" viewBox="0 0 574 120" fill="none" xmlns="http://www.w3.org/2000/svg">
<path d="M300.2 90.32V76.4H309.8C312.307 76.4 314.547 76.0533 316.52 75.36C318.547 74.6133 320.253 73.5733 321.64 72.24C323.027 70.8533 324.093 69.2 324.84 67.28C325.587 65.3067 325.96 63.0933 325.96 60.64C325.96 58.08 325.587 55.84 324.84 53.92C324.093 51.9467 323.027 50.32 321.64 49.04C320.253 47.7067 318.547 46.72 316.52 46.08C314.547 45.3867 312.307 45.04 309.8 45.04H300.2V31.12H309.16C314.44 31.12 319.053 31.8667 323 33.36C327 34.8533 330.333 36.9333 333 39.6C335.667 42.2133 337.667 45.2533 339 48.72C340.333 52.1867 341 55.8667 341 59.76V61.52C341 65.0933 340.333 68.6133 339 72.08C337.667 75.4933 335.667 78.5867 333 81.36C330.333 84.08 327 86.2667 323 87.92C319.053 89.52 314.44 90.32 309.16 90.32H300.2ZM286.92 90.32V31.12H301.8V90.32H286.92ZM369.266 91.6C365.532 91.6 362.226 90.96 359.346 89.68C356.466 88.4 354.039 86.6667 352.066 84.48C350.092 82.2933 348.572 79.84 347.506 77.12C346.492 74.4 345.986 71.6 345.986 68.72V67.12C345.986 64.1333 346.492 61.28 347.506 58.56C348.572 55.7867 350.066 53.3333 351.986 51.2C353.959 49.0667 356.359 47.3867 359.186 46.16C362.012 44.88 365.212 44.24 368.786 44.24C373.532 44.24 377.559 45.3067 380.866 47.44C384.172 49.5733 386.706 52.4 388.466 55.92C390.226 59.3867 391.106 63.1733 391.106 67.28V71.92H352.066V64.08H382.706L377.666 67.6C377.666 65.0933 377.319 62.9867 376.626 61.28C375.986 59.52 374.999 58.1867 373.666 57.28C372.386 56.3733 370.759 55.92 368.786 55.92C366.866 55.92 365.186 56.3733 363.746 57.28C362.359 58.1333 361.292 59.4667 360.546 61.28C359.799 63.04 359.426 65.28 359.426 68C359.426 70.4533 359.772 72.5867 360.466 74.4C361.159 76.16 362.226 77.52 363.666 78.48C365.106 79.44 366.972 79.92 369.266 79.92C371.292 79.92 372.946 79.5733 374.226 78.88C375.559 78.1867 376.492 77.2533 377.026 76.08H390.306C389.666 79.0667 388.386 81.7333 386.466 84.08C384.599 86.4267 382.199 88.2667 379.266 89.6C376.386 90.9333 373.052 91.6 369.266 91.6ZM416.3 91.44C409.9 91.44 404.86 90.1333 401.18 87.52C397.5 84.8533 395.527 81.12 395.26 76.32H408.06C408.273 77.6533 409.1 78.8 410.54 79.76C411.98 80.72 414.007 81.2 416.62 81.2C418.487 81.2 420.087 80.9333 421.42 80.4C422.807 79.8133 423.5 78.88 423.5 77.6C423.5 76.48 422.967 75.5733 421.9 74.88C420.833 74.1333 418.887 73.6267 416.06 73.36L413.02 73.04C407.367 72.4533 403.207 70.9067 400.54 68.4C397.873 65.8933 396.54 62.7467 396.54 58.96C396.54 55.7067 397.34 53.04 398.94 50.96C400.54 48.8267 402.753 47.2267 405.58 46.16C408.407 45.0933 411.633 44.56 415.26 44.56C421.18 44.56 425.953 45.8667 429.58 48.48C433.207 51.04 435.127 54.7467 435.34 59.6H422.54C422.327 58.2667 421.607 57.1467 420.38 56.24C419.153 55.28 417.393 54.8 415.1 54.8C413.447 54.8 412.087 55.0933 411.02 55.68C410.007 56.2667 409.5 57.0933 409.5 58.16C409.5 59.28 409.98 60.1067 410.94 60.64C411.953 61.1733 413.553 61.5733 415.74 61.84L418.78 62.16C424.433 62.7467 428.78 64.32 431.82 66.88C434.913 69.3867 436.46 72.6933 436.46 76.8C436.46 79.84 435.633 82.4533 433.98 84.64C432.38 86.8267 430.06 88.5067 427.02 89.68C424.033 90.8533 420.46 91.44 416.3 91.44ZM445.782 90V45.84H460.342V90H445.782ZM440.182 56.4V45.84H460.342V56.4H440.182ZM451.782 42.32C449.115 42.32 447.142 41.6533 445.862 40.32C444.635 38.9333 444.022 37.1733 444.022 35.04C444.022 32.9067 444.635 31.1733 445.862 29.84C447.142 28.4533 449.089 27.76 451.702 27.76C454.369 27.76 456.315 28.4533 457.542 29.84C458.769 31.1733 459.382 32.9067 459.382 35.04C459.382 37.1733 458.769 38.9333 457.542 40.32C456.315 41.6533 454.395 42.32 451.782 42.32ZM488.726 107.68C486.539 107.68 484.272 107.6 481.926 107.44C479.632 107.28 477.552 107.067 475.686 106.8V94.64C477.552 94.8533 479.632 95.04 481.926 95.2C484.219 95.4133 486.326 95.52 488.246 95.52C491.552 95.52 494.246 95.1733 496.326 94.48C498.459 93.7867 500.032 92.72 501.046 91.28C502.059 89.84 502.566 88 502.566 85.76V76.8L504.806 72C504.699 75.7333 503.979 78.9867 502.646 81.76C501.312 84.48 499.392 86.5867 496.886 88.08C494.432 89.5733 491.446 90.32 487.926 90.32C484.939 90.32 482.246 89.7867 479.846 88.72C477.446 87.6533 475.392 86.16 473.686 84.24C472.032 82.2667 470.752 79.9467 469.846 77.28C468.939 74.6133 468.486 71.7067 468.486 68.56V66.64C468.486 63.4933 468.966 60.5867 469.926 57.92C470.886 55.2 472.272 52.8533 474.086 50.88C475.899 48.8533 478.032 47.3067 480.486 46.24C482.992 45.12 485.766 44.56 488.806 44.56C492.326 44.56 495.366 45.36 497.926 46.96C500.486 48.5067 502.486 50.7733 503.926 53.76C505.366 56.7467 506.139 60.3733 506.246 64.64L504.646 65.2V45.84H516.166V84.8C516.166 90.24 515.152 94.64 513.126 98C511.099 101.36 508.032 103.813 503.926 105.36C499.872 106.907 494.806 107.68 488.726 107.68ZM492.806 78.32C494.566 78.32 496.139 77.92 497.526 77.12C498.966 76.32 500.112 75.1733 500.966 73.68C501.819 72.1333 502.246 70.2933 502.246 68.16V66.24C502.246 64.16 501.792 62.4 500.886 60.96C500.032 59.52 498.886 58.4267 497.446 57.68C496.006 56.9333 494.459 56.56 492.806 56.56C490.886 56.56 489.179 57.0133 487.686 57.92C486.246 58.8267 485.099 60.1067 484.246 61.76C483.446 63.4133 483.046 65.36 483.046 67.6C483.046 69.84 483.446 71.76 484.246 73.36C485.099 74.96 486.246 76.1867 487.686 77.04C489.179 77.8933 490.886 78.32 492.806 78.32ZM526.28 90V45.84H537.8V64.8H537.16C537.16 60.2133 537.747 56.4267 538.92 53.44C540.093 50.4 541.827 48.1333 544.12 46.64C546.467 45.1467 549.293 44.4 552.6 44.4H553.24C558.253 44.4 562.12 46.08 564.84 49.44C567.613 52.7467 569 57.84 569 64.72V90H554.44V64.32C554.44 62.2933 553.827 60.64 552.6 59.36C551.427 58.0267 549.8 57.36 547.72 57.36C545.64 57.36 543.96 58.0267 542.68 59.36C541.453 60.64 540.84 62.3467 540.84 64.48V90H526.28Z" fill="#EEF2FF"/>
<rect x="240" y="8" width="1" height="100" fill="#F9FAFB"/>
<path fill-rule="evenodd" clip-rule="evenodd" d="M19.3277 56.4704H0V0H45.0981C51.5406 0 54.7619 8.17471 54.7619 22.4221C54.7619 36.6694 51.5406 44.8441 45.0981 44.8441H19.3277V56.4704ZM34.6301 23H18.5236V21.4896H34.6301V23Z" fill="#F9FAFB"/>
<path d="M78.1177 0H57.9846V56.4704H103.083L113.706 22.2506H121.605V35.294H112.747L106.304 56.4704H141.738V0H98.1165L88.05 35.294H78.1177V0Z" fill="#F9FAFB"/>
<path d="M164.831 0H144.958V18.3666C144.958 27.0666 152.024 34.3273 158.869 34.3273H180.288V35.294H144.958V56.4704H189.121C196.187 56.4704 199.72 50.2665 199.72 46.3998V0H182.055V15.4666H164.831V0Z" fill="#F9FAFB"/>
<path d="M0 85.8559V63.9137L192.157 63.9134C198.039 63.9134 200 65.6661 200 70.9242V85.8559H35.4833V120H12.9026V85.8559H0Z" fill="#F9FAFB"/>
<path d="M145.161 114.085V94.3666C145.161 90.423 148.387 88.4512 154.839 88.4512H200V98.8221H164.516V100.282H200V105.978H164.516V107.731H200V120L154.839 120C148.387 120 145.161 118.028 145.161 114.085Z" fill="#F9FAFB"/>
<path d="M41.9352 88.4512H64.5159V120H41.9352V88.4512Z" fill="#F9FAFB"/>
<path d="M70.9675 88.4512V120H85.0472V98.9675H87.0966L93.5482 120H116.129L122.58 98.9675H124.63V120H138.71V88.4512H111.727L106.888 105.978H102.789L97.9505 88.4512H70.9675Z" fill="#F9FAFB"/>
</svg>
