<svg width="200" height="120" viewBox="0 0 200 120" fill="none" xmlns="http://www.w3.org/2000/svg">
<path fill-rule="evenodd" clip-rule="evenodd" d="M19.3277 56.4704H0V0H45.0981C51.5406 0 54.7619 8.17471 54.7619 22.4221C54.7619 36.6694 51.5406 44.8441 45.0981 44.8441H19.3277V56.4704ZM34.6301 23H18.5236V21.4896H34.6301V23Z" fill="#818CF8"/>
<path d="M78.1177 0H57.9846V56.4704H103.083L113.706 22.2506H121.605V35.294H112.747L106.304 56.4704H141.738V0H98.1165L88.05 35.294H78.1177V0Z" fill="#818CF8"/>
<path d="M164.831 0H144.958V18.3666C144.958 27.0666 152.024 34.3273 158.869 34.3273H180.288V35.294H144.958V56.4704H189.121C196.187 56.4704 199.72 50.2665 199.72 46.3998V0H182.055V15.4666H164.831V0Z" fill="#818CF8"/>
<path d="M0 85.8559V63.9137L192.157 63.9134C198.039 63.9134 200 65.6661 200 70.9242V85.8559H35.4833V120H12.9026V85.8559H0Z" fill="#818CF8"/>
<path d="M145.161 114.085V94.3666C145.161 90.423 148.387 88.4512 154.839 88.4512H200V98.8221H164.516V100.282H200V105.978H164.516V107.731H200V120L154.839 120C148.387 120 145.161 118.028 145.161 114.085Z" fill="#818CF8"/>
<path d="M41.9352 88.4512H64.5159V120H41.9352V88.4512Z" fill="#818CF8"/>
<path d="M70.9675 88.4512V120H85.0472V98.9675H87.0966L93.5482 120H116.129L122.58 98.9675H124.63V120H138.71V88.4512H111.727L106.888 105.978H102.789L97.9505 88.4512H70.9675Z" fill="#818CF8"/>
</svg>
