<svg width="220" height="120" viewBox="0 0 220 120" fill="none" xmlns="http://www.w3.org/2000/svg">
<path fill-rule="evenodd" clip-rule="evenodd" d="M21.1764 56.4704H0V0H49.4116C56.4704 0 59.9998 8.17471 59.9998 22.4221C59.9998 36.6694 56.4704 44.8441 49.4116 44.8441H21.1764V56.4704ZM37.9424 22.4237H20.2954V21.4896L37.9424 21.4895V22.4237Z" fill="#A5B4FC"/>
<path d="M85.5895 0H63.5308V56.4704H112.942L124.581 22.2506H133.236V35.294H123.531L116.472 56.4704H155.295V0H107.501L96.4718 35.294H85.5895V0Z" fill="#A5B4FC"/>
<path d="M180.597 0H158.823V18.3666C158.823 27.0666 166.565 34.3273 174.065 34.3273H197.532V35.294H158.823V56.4704H207.21C214.952 56.4704 218.823 50.2665 218.823 46.3998V0H199.468V15.4666H180.597V0Z" fill="#A5B4FC"/>
<path d="M0 85.8559V63.9137L210.536 63.9133C216.981 63.9133 219.129 65.666 219.129 70.9242V85.8559H38.8772V120H14.1367V85.8559H0Z" fill="#A5B4FC"/>
<path d="M159.046 114.085V94.3666C159.046 90.423 162.58 88.4512 169.649 88.4512H219.13V98.8221H180.252V100.282H219.13V105.978H180.252V107.731H219.13V120L169.649 120C162.58 120 159.046 118.028 159.046 114.085Z" fill="#A5B4FC"/>
<path d="M45.9462 88.4512H70.6867V120H45.9462V88.4512Z" fill="#A5B4FC"/>
<path d="M77.7554 88.4512V120H93.1818V98.9674H95.4272L102.496 120H127.236L134.305 98.9674H136.55V120H151.977V88.4512H122.413L117.111 105.978H112.621L109.97 97.2147L107.319 88.4512H77.7554Z" fill="#A5B4FC"/>
</svg>
