<svg width="24" height="24" viewBox="0 0 24 24" fill="none" xmlns="http://www.w3.org/2000/svg">
<path d="M11.95 15C13.6068 15 14.95 13.6569 14.95 12C14.95 10.3431 13.6068 9 11.95 9C10.2931 9 8.94995 10.3431 8.94995 12C8.94995 13.6569 10.2931 15 11.95 15Z" fill="#EEF2FF"/>
<path fill-rule="evenodd" clip-rule="evenodd" d="M21.1729 16.1339C22.0014 14.699 21.5097 12.8642 20.0749 12.0358L20.0127 11.9999L20.0748 11.9641C21.5097 11.1357 22.0013 9.30091 21.1729 7.86603L20.1729 6.13398C19.3445 4.6991 17.5097 4.20747 16.0748 5.0359L16.0126 5.0718V5C16.0126 3.34315 14.6695 2 13.0126 2H11.0126C9.35578 2 8.01263 3.34315 8.01263 5L8.01263 5.07168L7.95051 5.03582C6.51563 4.20739 4.68086 4.69902 3.85243 6.13389L2.85243 7.86594C2.02401 9.30082 2.51563 11.1356 3.95051 11.964L4.01273 11.9999L3.95045 12.0359C2.51558 12.8643 2.02395 14.6991 2.85237 16.134L3.85237 17.866C4.6808 19.3009 6.51557 19.7925 7.95045 18.9641L8.01263 18.9282V19C8.01263 20.6569 9.35578 22 11.0126 22H13.0126C14.6695 22 16.0126 20.6569 16.0126 19V18.9281L16.0749 18.964C17.5097 19.7925 19.3445 19.3008 20.1729 17.8659L21.1729 16.1339ZM16.95 12C16.95 14.7614 14.7114 17 11.95 17C9.18853 17 6.94995 14.7614 6.94995 12C6.94995 9.23858 9.18853 7 11.95 7C14.7114 7 16.95 9.23858 16.95 12Z" fill="#EEF2FF"/>
</svg>
