<svg width="24" height="24" viewBox="0 0 24 24" fill="none" xmlns="http://www.w3.org/2000/svg">
<path fill-rule="evenodd" clip-rule="evenodd" d="M20.723 16.1339C21.5514 14.699 21.0598 12.8642 19.6249 12.0358L19.5628 11.9999L19.6249 11.9641C21.0597 11.1357 21.5514 9.30091 20.7229 7.86603L19.7229 6.13398C18.8945 4.6991 17.0597 4.20747 15.6249 5.0359L15.5627 5.0718V5C15.5627 3.34315 14.2195 2 12.5627 2L10.5627 2C8.90583 2 7.56268 3.34315 7.56268 5L7.56268 5.07168L7.50056 5.03582C6.06568 4.20739 4.23091 4.69902 3.40248 6.13389L2.40248 7.86594C1.57406 9.30082 2.06568 11.1356 3.50056 11.964L3.56277 11.9999L3.5005 12.0359C2.06562 12.8643 1.574 14.6991 2.40242 16.134L3.40242 17.866C4.23085 19.3009 6.06562 19.7925 7.5005 18.9641L7.56268 18.9282V19C7.56268 20.6569 8.90582 22 10.5627 22H12.5627C14.2195 22 15.5627 20.6569 15.5627 19V18.9281L15.6249 18.964C17.0598 19.7925 18.8946 19.3008 19.723 17.8659L20.723 16.1339ZM16.5627 6.80384C15.2294 7.57365 13.5627 6.6114 13.5627 5.07179V5C13.5627 4.44772 13.115 4 12.5627 4L10.5627 4C10.0104 4 9.56271 4.44768 9.56268 4.99994L9.56268 5.07169C9.56267 6.61124 7.8961 7.57349 6.56277 6.80378L6.50056 6.76787C6.02227 6.49173 5.41068 6.6556 5.13453 7.13389L4.13453 8.86595C3.85839 9.34424 4.02227 9.95583 4.50056 10.232L4.56269 10.2678C5.89611 11.0376 5.89615 12.9622 4.56277 13.732L4.5005 13.7679C4.02221 14.0441 3.85833 14.6557 4.13447 15.134L5.13448 16.866C5.41062 17.3443 6.02221 17.5082 6.5005 17.2321L6.56269 17.1961C7.89602 16.4264 9.56267 17.3886 9.56268 18.9282V19C9.56268 19.5523 10.0104 20 10.5627 20H12.5627C13.115 20 13.5627 19.5523 13.5627 19V18.9281C13.5627 17.3884 15.2294 16.4262 16.5628 17.1961L16.6249 17.232C17.1032 17.5081 17.7148 17.3442 17.9909 16.8659L18.9909 15.1339C19.2671 14.6556 19.1032 14.044 18.6249 13.7679L18.5627 13.732C17.2295 12.9621 17.2295 11.0377 18.5628 10.2679L18.6249 10.232C19.1032 9.9559 19.267 9.34431 18.9909 8.86603L17.9909 7.13398C17.7147 6.65568 17.1032 6.49181 16.6249 6.76795L16.5627 6.80384Z" fill="#9CA3AF"/>
<path fill-rule="evenodd" clip-rule="evenodd" d="M11.5625 13.9999C12.6671 13.9999 13.5625 13.1045 13.5625 11.9999C13.5625 10.8954 12.6671 9.99994 11.5625 9.99994C10.4579 9.99994 9.5625 10.8954 9.5625 11.9999C9.5625 13.1045 10.4579 13.9999 11.5625 13.9999ZM11.5625 15.9999C13.7716 15.9999 15.5625 14.2091 15.5625 11.9999C15.5625 9.7908 13.7716 7.99994 11.5625 7.99994C9.35336 7.99994 7.5625 9.7908 7.5625 11.9999C7.5625 14.2091 9.35336 15.9999 11.5625 15.9999Z" fill="#9CA3AF"/>
</svg>
