<svg width="25" height="24" viewBox="0 0 25 24" fill="none" xmlns="http://www.w3.org/2000/svg">
<path fill-rule="evenodd" clip-rule="evenodd" d="M10.5 3C6.63401 3 3.5 6.13401 3.5 10C3.5 13.866 6.63401 17 10.5 17C12.0723 17 13.5236 16.4816 14.6922 15.6064L18.793 19.7072C19.1835 20.0977 19.8167 20.0977 20.2072 19.7072C20.5977 19.3167 20.5977 18.6835 20.2072 18.293L16.1064 14.1922C16.9816 13.0236 17.5 11.5723 17.5 10C17.5 6.13401 14.366 3 10.5 3ZM5.5 10C5.5 7.23858 7.73858 5 10.5 5C13.2614 5 15.5 7.23858 15.5 10C15.5 12.7614 13.2614 15 10.5 15C7.73858 15 5.5 12.7614 5.5 10Z" fill="#9CA3AF"/>
</svg>
